<svg width="80" height="80" fill="none" xmlns="http://www.w3.org/2000/svg"><circle cx="40" cy="40" r="40" fill="#fff" fill-opacity=".1"/><circle cx="40" cy="40" r="32" fill="#CC9C63"/><path d="M77 40c0 20.434-16.566 37-37 37S3 60.434 3 40 19.566 3 40 3s37 16.566 37 37zM5.122 40c0 19.263 15.615 34.878 34.878 34.878 19.263 0 34.878-15.615 34.878-34.878C74.878 20.737 59.263 5.122 40 5.122 20.737 5.122 5.122 20.737 5.122 40z" fill="#293A50"/><path d="M46 51l-2.272-13.733C45.044 36.374 46 34.811 46 33.136 46 30.345 43.609 28 40.5 28S35 30.345 35 33.136c0 1.675.837 3.238 2.272 4.131L35 51h11z" fill="#293A50"/></svg>