<svg width="248" height="48" fill="none" xmlns="http://www.w3.org/2000/svg"><path d="M24.524 5.047h-5.011a.917.917 0 00-.853.57c-.154.333-.13.737.047 1.01l1.268 1.971-5.012 11.983s0 .024-.023.024v-.024L9.643 7.92c-.522-1.294-1.292-2.684-3.614-2.85L.96 5.047a.972.972 0 00-.865.57c-.142.333-.119.737.07 1.01l1.387 2.161V24.69c0 .57.438 1.021.96 1.021h3.14a.895.895 0 00.71-.344c.178-.166.26-.428.26-.7L6.576 11.15l4.881 12.043c.51 1.211 1.114 2.731 3.472 2.731 2.357 0 2.89-1.247 3.506-2.731l4.929-11.9-.107 13.372a.899.899 0 00.25.7.897.897 0 00.71.345h3.104c.557 0 .995-.451.995-1.021V8.254c0-1.972-1.422-3.183-3.803-3.207m24.025 15.225c-1.054 1.27-2.878 1.39-4.81 1.39-1.93 0-3.743-.12-4.786-1.39-.734-.843-1.09-2.458-1.09-4.88 0-2.423.332-4.003 1.09-4.882.96-1.128 2.535-1.354 4.786-1.354 1.778 0 3.756.083 4.81 1.354.486.535 1.09 1.615 1.09 4.881 0 2.423-.355 4.038-1.09 4.881zM43.752 4.964c-2.559 0-6.054 0-8.459 2.173-2.583 2.28-2.583 6.176-2.583 8.266 0 2.233 0 5.95 2.583 8.29 2.382 2.173 6.054 2.173 8.46 2.173 2.404 0 6.1 0 8.482-2.174 2.25-2.054 2.523-5.498 2.523-8.289 0-2.79-.272-6.235-2.523-8.266-2.405-2.173-6.054-2.173-8.483-2.173zm28.813 2.553c-.486-1.128-1.552-2.446-3.85-2.446-1.849 0-3.14.82-3.85 2.446l-7.24 16.947c-.13.31-.106.654.048.939.177.308.51.498.83.498h3.387c.38 0 .735-.249.889-.617l5.9-15.059 4.727 12.042-1.315 2.031a1.03 1.03 0 00-.071 1.01c.178.368.51.593.888.593h5.971c.332 0 .664-.201.842-.498.154-.285.177-.63.047-.939L72.553 7.517h.012zM98.51 20.272c-1.066 1.27-2.89 1.39-4.81 1.39-1.919 0-3.755-.12-4.786-1.39-.734-.843-1.09-2.458-1.09-4.88 0-2.423.332-4.003 1.09-4.882.972-1.128 2.524-1.354 4.787-1.354 1.777 0 3.743.083 4.81 1.354.485.535 1.09 1.615 1.09 4.881 0 2.423-.356 4.038-1.09 4.881zM93.724 4.964c-2.559 0-6.042 0-8.447 2.173-2.583 2.28-2.583 6.176-2.583 8.266 0 2.233 0 5.95 2.583 8.29 2.381 2.173 6.054 2.173 8.447 2.173 2.393 0 6.102 0 8.483-2.174 2.251-2.054 2.535-5.498 2.535-8.289 0-2.79-.284-6.235-2.535-8.266-2.405-2.173-6.054-2.173-8.483-2.173zM153.387 21.9a.976.976 0 00-.805-.416h-8.862c-.533 0-.829-.06-.96-.107 0-.036-.059-.12-.059-.226v-3.872h10.888c.379 0 .734-.19.888-.558.154-.344.131-.736-.071-1.021l-1.445-2.197a.93.93 0 00-.782-.451h-9.466V9.833c0-.273.024-.332.106-.392.154-.142.534-.142.688-.142h10.402c.379 0 .71-.226.888-.582a1.14 1.14 0 00-.071-1.021l-1.445-2.197a.939.939 0 00-.806-.452H137.05a.928.928 0 00-.853.594c-.154.309-.13.7.083 1.021l1.386 2.138v13.372c0 .618 0 1.912.995 2.791.829.76 1.789.76 2.701.76h12.689a.918.918 0 00.853-.57c.154-.332.13-.736-.071-1.045l-1.422-2.209h-.024zm32.107-5.606c-.557-.452-.877-.76-.877-1.212 0-.249.178-.427.58-.795l8.329-7.446c.296-.25.403-.713.273-1.105-.131-.392-.51-.677-.913-.677h-3.803l-9.347 8.456V8.812l1.421-2.173c.178-.31.202-.677.048-1.01a.91.91 0 00-.865-.57h-6.279a.922.922 0 00-.865.57c-.154.333-.13.7.047 1.01l1.422 2.173v4.703l-9.336-8.456h-3.803c-.402 0-.781.285-.912.677-.13.392-.023.843.273 1.105l8.328 7.446c.403.368.581.546.581.795 0 .452-.32.76-.889 1.212l-9.039 7.612c-.296.262-.427.677-.332 1.105.13.427.51.7.936.7h4.123l8.885-7.814h1.161v6.793c0 .558.427 1.01.96 1.01h3.14c.533 0 .959-.452.959-1.01v-6.793h1.173l8.886 7.814h4.134a.973.973 0 00.936-.7c.107-.428-.023-.843-.331-1.105l-9.04-7.612h.036zm25.708 0c-.557-.452-.888-.76-.888-1.212 0-.26.177-.427.58-.795l8.329-7.446c.308-.25.403-.713.284-1.105a.979.979 0 00-.912-.665h-3.791l-9.336 8.456V6.08c0-.559-.438-1.01-1.066-1.01h-4.609c-.379 0-.711.19-.865.558a1.11 1.11 0 00.048 1.022l1.422 2.173v4.822h-.688c-.426 0-.782.249-.983.64-.154.393-.13.82.071 1.165l1.6 2.446v6.793c0 .57.426 1.021.959 1.021h3.14c.533 0 .959-.45.959-1.021v-6.793h1.161l8.886 7.814h4.123a.99.99 0 00.936-.7c.094-.416-.024-.843-.332-1.105l-9.04-7.612h.012zm22.297.593l2.95-6.71s.024-.023.024-.047c0 .024.023.071.023.107l2.962 6.662h-5.971l.012-.012zm14.394 7.364l-7.511-16.639c-.817-1.77-1.872-2.505-3.767-2.53h-5a.96.96 0 00-.877.559 1.09 1.09 0 00.072 1.045l1.291 2.007-3.436 7.53-.308.676h-2.12c-.463 0-.865.285-1.043.701-.178.392-.154.879.071 1.247l1.327 2.03-1.505 3.386a1.07 1.07 0 00.036.95c.178.308.509.51.829.51h3.258a.964.964 0 00.889-.594l1.824-4.287h9.111l1.848 4.287a.94.94 0 00.889.594h3.234c.355 0 .687-.19.865-.51.154-.274.177-.654.023-.95v-.012zM120.238 10.225l4.716 12.042H115.5l4.727-12.042h.011zm12.748 12.589a.775.775 0 00-.746-.547h-1.884l-6.303-14.75c-.711-1.627-2.002-2.458-3.85-2.458-2.298 0-3.365 1.33-3.85 2.458l-6.28 14.75h-1.871a.79.79 0 00-.759.547l-.509 1.52a1.185 1.185 0 001.137 1.567h24.264c.391 0 .746-.178.959-.486.225-.31.285-.713.166-1.081l-.509-1.52h.035zM18.588 36.637a2.354 2.354 0 00-2.345 2.352c0 1.294 1.054 2.363 2.345 2.363a2.349 2.349 0 002.346-2.363 2.331 2.331 0 00-2.346-2.352zm209.888 0a2.344 2.344 0 00-2.334 2.352c0 1.294 1.042 2.363 2.334 2.363a2.35 2.35 0 002.346-2.363 2.34 2.34 0 00-2.346-2.352zM144.62 1.259c0 .831-.675 1.508-1.504 1.508h-1.943a.98.98 0 01-.972-.986v-.32a.97.97 0 01.818-.962L144.004 0a.552.552 0 01.427.119c.118.095.189.25.189.404v.736zm6.291 0c0 .831-.675 1.508-1.504 1.508h-1.943a.983.983 0 01-.984-.986v-.32a.97.97 0 01.818-.962L150.307 0a.552.552 0 01.427.119c.118.095.189.25.189.404v.736h-.012zM46.74 33.366c0 .118-.005.217-.017.3a.754.754 0 01-.04.193.247.247 0 01-.077.105.167.167 0 01-.1.03h-2.513v6.117a.156.156 0 01-.041.105.276.276 0 01-.123.07c-.059.02-.137.033-.235.041a3.237 3.237 0 01-.375.018c-.148 0-.273-.006-.375-.018a1.023 1.023 0 01-.234-.04.328.328 0 01-.129-.071.171.171 0 01-.035-.105v-6.897c0-.164.04-.285.123-.363a.464.464 0 01.334-.123h3.603c.078 0 .137.049.176.146.04.098.059.262.059.492zm19.35 3.064c0 .63-.079 1.192-.235 1.688a3.431 3.431 0 01-.697 1.266 3.04 3.04 0 01-1.149.791c-.453.18-.978.27-1.576.27-.59 0-1.105-.077-1.547-.229a2.704 2.704 0 01-1.096-.709c-.292-.316-.513-.719-.662-1.207-.144-.488-.216-1.066-.216-1.734 0-.614.078-1.164.234-1.653.156-.492.389-.91.697-1.254.309-.343.69-.607 1.143-.79.457-.184.986-.276 1.588-.276.574 0 1.08.076 1.517.228a2.65 2.65 0 011.102.704c.297.316.52.716.668 1.2.152.481.228 1.05.228 1.706zm-1.618.083a5.7 5.7 0 00-.094-1.084 2.277 2.277 0 00-.322-.838 1.475 1.475 0 00-.597-.54c-.25-.128-.563-.192-.938-.192-.379 0-.695.072-.95.216a1.72 1.72 0 00-.614.569 2.402 2.402 0 00-.334.838 5.195 5.195 0 00-.094 1.007c0 .415.031.788.094 1.12.062.328.168.609.316.843.148.235.348.414.598.54.25.12.564.181.943.181s.695-.07.95-.21a1.72 1.72 0 00.614-.575 2.38 2.38 0 00.329-.844c.066-.324.1-.668.1-1.031zm21.106 2.648c0 .098-.004.182-.012.252a1.068 1.068 0 01-.023.176.503.503 0 01-.14.246 1.31 1.31 0 01-.253.17 2.86 2.86 0 01-.451.205 4.032 4.032 0 01-1.348.223c-.52 0-.988-.08-1.406-.24a2.792 2.792 0 01-1.066-.715 3.237 3.237 0 01-.674-1.196c-.156-.476-.234-1.03-.234-1.664 0-.644.085-1.216.257-1.716s.412-.92.721-1.26c.309-.34.678-.598 1.107-.774.434-.175.91-.263 1.43-.263a3.441 3.441 0 011.148.193c.168.055.319.12.452.193.133.075.224.14.275.194.055.05.092.093.111.129a.49.49 0 01.047.134 2.983 2.983 0 01.035.469c0 .117-.004.217-.011.299a.772.772 0 01-.041.2.274.274 0 01-.07.11.14.14 0 01-.094.036c-.059 0-.133-.033-.223-.1a2.91 2.91 0 00-.352-.228 2.483 2.483 0 00-.51-.229 2.083 2.083 0 00-.703-.105c-.3 0-.57.062-.808.187a1.723 1.723 0 00-.604.527 2.48 2.48 0 00-.375.827c-.086.324-.129.69-.129 1.095 0 .446.045.832.135 1.16a2.3 2.3 0 00.393.803c.172.211.377.37.615.475.242.101.514.152.815.152.273 0 .51-.031.709-.094a3.03 3.03 0 00.51-.216c.144-.079.261-.149.35-.211.095-.063.167-.094.218-.094.039 0 .07.008.093.023.024.016.043.047.059.094a.934.934 0 01.035.2c.008.081.012.193.012.333zm18.567-5.801c0 .114-.006.212-.018.294a.746.746 0 01-.041.193.244.244 0 01-.076.105.14.14 0 01-.094.035h-1.898V40.1a.156.156 0 01-.041.105.253.253 0 01-.123.077 1.247 1.247 0 01-.24.046 3.188 3.188 0 01-.37.018c-.148 0-.273-.006-.375-.018a1.244 1.244 0 01-.234-.046.287.287 0 01-.129-.077.174.174 0 01-.035-.105v-6.111h-1.898a.147.147 0 01-.1-.036.276.276 0 01-.07-.105.936.936 0 01-.047-.194 3.151 3.151 0 01-.012-.292c0-.118.004-.217.012-.3a.823.823 0 01.047-.193.226.226 0 01.07-.105.147.147 0 01.1-.035h5.343a.14.14 0 01.094.035c.031.02.057.055.076.105.02.047.033.112.041.194.012.082.018.181.018.299zm19.37 6.75c0 .04-.014.075-.041.106a.282.282 0 01-.123.07 1.05 1.05 0 01-.241.041c-.097.012-.22.018-.369.018-.148 0-.273-.006-.375-.018a1.02 1.02 0 01-.234-.04.268.268 0 01-.117-.071.169.169 0 01-.036-.105v-3.997a16.11 16.11 0 01.024-.837h-.012l-.111.193a36.132 36.132 0 01-.293.474 8.32 8.32 0 01-.164.24l-2.637 3.932a.684.684 0 01-.099.112.353.353 0 01-.129.076.818.818 0 01-.194.03 2.924 2.924 0 01-.293.01c-.152 0-.275-.005-.369-.017a.914.914 0 01-.223-.04.21.21 0 01-.105-.077.201.201 0 01-.029-.111v-7.172c0-.04.011-.072.035-.1a.286.286 0 01.129-.076c.062-.02.142-.033.24-.04.098-.013.221-.018.369-.018.153 0 .278.005.375.017.098.008.176.022.235.041.058.02.099.045.123.076a.15.15 0 01.035.1v4.02a14.046 14.046 0 01-.024.808h.012a11.647 11.647 0 01.568-.902l2.637-3.932a.546.546 0 01.088-.1.342.342 0 01.123-.076.853.853 0 01.199-.04c.078-.008.178-.012.299-.012.149 0 .268.005.358.017a.913.913 0 01.222.041c.055.02.092.045.111.076a.154.154 0 01.036.106v7.178zm20.433-.011a.156.156 0 01-.041.105.244.244 0 01-.123.077 1.236 1.236 0 01-.234.046 3.188 3.188 0 01-.37.018 3.32 3.32 0 01-.38-.018 1.24 1.24 0 01-.235-.046.286.286 0 01-.123-.077.174.174 0 01-.035-.105v-3.065h-2.836V40.1a.172.172 0 01-.035.105.253.253 0 01-.123.077 1.24 1.24 0 01-.235.046 3.222 3.222 0 01-.375.018c-.148 0-.273-.006-.375-.018a1.244 1.244 0 01-.234-.046.292.292 0 01-.129-.077.174.174 0 01-.035-.105v-7.16c0-.04.012-.075.035-.106a.291.291 0 01.129-.076c.059-.02.137-.035.234-.047.102-.012.227-.017.375-.017.153 0 .278.005.375.017.098.012.176.027.235.047.058.02.099.045.123.076a.174.174 0 01.035.106v2.783h2.836V32.94c0-.04.012-.075.035-.106a.285.285 0 01.123-.076c.059-.02.137-.035.235-.047a3.35 3.35 0 01.38-.017c.149 0 .272.005.37.017.097.012.175.027.234.047.059.02.1.045.123.076a.158.158 0 01.041.106v7.16zm20.606.011c0 .04-.014.075-.041.106a.282.282 0 01-.123.07 1.05 1.05 0 01-.241.041c-.097.012-.22.018-.369.018-.148 0-.273-.006-.375-.018a1.02 1.02 0 01-.234-.04.268.268 0 01-.117-.071.168.168 0 01-.035-.105v-3.997c0-.152.002-.3.005-.445.004-.148.01-.28.018-.392h-.012l-.111.193a36.132 36.132 0 01-.293.474 8.32 8.32 0 01-.164.24l-2.637 3.932a.684.684 0 01-.099.112.353.353 0 01-.129.076.818.818 0 01-.194.03 2.924 2.924 0 01-.293.01c-.152 0-.275-.005-.369-.017a.895.895 0 01-.222-.04.208.208 0 01-.106-.077.21.21 0 01-.029-.111v-7.172a.15.15 0 01.035-.1.286.286 0 01.129-.076c.062-.02.142-.033.24-.04.098-.013.221-.018.369-.018.153 0 .278.005.375.017.098.008.176.022.235.041.058.02.099.045.123.076a.15.15 0 01.035.1v4.02a14.046 14.046 0 01-.024.808h.012a11.647 11.647 0 01.568-.902l2.637-3.932a.586.586 0 01.088-.1.342.342 0 01.123-.076.853.853 0 01.199-.04c.078-.008.178-.012.299-.012.149 0 .268.005.358.017a.904.904 0 01.222.041c.055.02.092.045.112.076a.159.159 0 01.035.106v7.178zm21.312 1.987a.17.17 0 01-.029.1.199.199 0 01-.106.064.717.717 0 01-.205.04 2.49 2.49 0 01-.328.018 2.49 2.49 0 01-.328-.017.875.875 0 01-.211-.041.23.23 0 01-.111-.065.164.164 0 01-.03-.1V40.31h-5.015a.455.455 0 01-.328-.117c-.079-.082-.118-.206-.118-.37v-6.896c0-.04.012-.072.036-.1a.287.287 0 01.128-.076 1.03 1.03 0 01.235-.04c.101-.013.226-.018.375-.018.152 0 .277.005.375.017.097.008.176.022.234.041.059.02.1.045.123.076.024.028.035.06.035.1v6.105h2.801v-6.105a.15.15 0 01.035-.1.297.297 0 01.129-.076 1.03 1.03 0 01.235-.04c.101-.013.226-.018.375-.018.152 0 .277.005.375.017.097.008.175.022.234.041.059.02.1.045.123.076a.15.15 0 01.035.1v6.105h.668c.098 0 .164.024.199.07.039.044.059.126.059.247v2.748zm20.171-2.361c.046.14.076.252.088.334.011.082-.004.144-.047.187-.043.04-.12.063-.229.07a7.242 7.242 0 01-.92.006 1.211 1.211 0 01-.252-.03.252.252 0 01-.123-.075.396.396 0 01-.058-.123l-.51-1.524h-2.848l-.48 1.483a.462.462 0 01-.065.14.254.254 0 01-.123.088.964.964 0 01-.24.041 5.528 5.528 0 01-.404.012 3.87 3.87 0 01-.422-.018c-.102-.011-.172-.039-.211-.082-.039-.047-.053-.111-.041-.193.012-.082.041-.191.088-.328l2.338-6.727a.513.513 0 01.082-.158.265.265 0 01.146-.094c.07-.023.166-.037.287-.04a11.253 11.253 0 011.032-.001c.136.004.242.018.316.041.078.02.133.051.164.094a.54.54 0 01.088.176l2.344 6.72zm-3.481-5.561h-.006l-1.072 3.223h2.15l-1.072-3.223z" fill="#fff"/></svg>