<svg width="82" height="82" fill="none" xmlns="http://www.w3.org/2000/svg"><circle cx="41" cy="41" r="40" fill="#fff" fill-opacity=".1"/><circle cx="41" cy="41" r="34" fill="#293A50"/><path d="M2.363 30.647C8.081 9.31 30.014-3.355 51.353 2.363 72.69 8.08 85.355 30.014 79.637 51.353 73.92 72.69 51.986 85.355 30.647 79.637 9.31 73.919-3.355 51.986 2.363 30.647zM77.421 50.76c5.39-20.115-6.547-40.79-26.662-46.18C30.644-.811 9.97 11.126 4.58 31.24c-5.39 20.115 6.547 40.79 26.662 46.18 20.115 5.39 40.79-6.547 46.18-26.662z" fill="#293A50"/><path d="M43.685 56V31.543l5.01 7.254H52L42.5 24 33 38.797h3.304l4.544-7.254V56h2.837z" fill="#fff"/></svg>